<?xml version="1.0" encoding="UTF-8" standalone="no"?>
<!DOCTYPE svg PUBLIC "-//W3C//DTD SVG 1.1//EN"
 "http://www.w3.org/Graphics/SVG/1.1/DTD/svg11.dtd">
<!-- Generated by graphviz version 2.43.0 (0)
 -->
<!-- Title: ProgramLifecycle Pages: 1 -->
<svg width="1155pt" height="510pt"
 viewBox="0.00 0.00 1155.00 510.00" xmlns="http://www.w3.org/2000/svg" xmlns:xlink="http://www.w3.org/1999/xlink">
<g id="graph0" class="graph" transform="scale(1 1) rotate(0) translate(4 506)">
<title>ProgramLifecycle</title>
<polygon fill="#0f172a" stroke="transparent" points="-4,4 -4,-506 1151,-506 1151,4 -4,4"/>
<text text-anchor="middle" x="573.5" y="-486.8" font-family="Inter" font-size="14.00" fill="#e2e8f0">Run Lifecycle Overview</text>
<g id="clust1" class="cluster">
<title>cluster_current</title>
<path fill="#0f172a" stroke="#38bdf8" d="M20,-8C20,-8 338,-8 338,-8 344,-8 350,-14 350,-20 350,-20 350,-459 350,-459 350,-465 344,-471 338,-471 338,-471 20,-471 20,-471 14,-471 8,-465 8,-459 8,-459 8,-20 8,-20 8,-14 14,-8 20,-8"/>
<text text-anchor="middle" x="179" y="-455.8" font-family="Inter" font-size="14.00" fill="#38bdf8">Current MVP</text>
</g>
<g id="clust2" class="cluster">
<title>cluster_final</title>
<path fill="#0f172a" stroke="#fbbf24" stroke-dasharray="5,2" d="M370,-8C370,-8 710,-8 710,-8 716,-8 722,-14 722,-20 722,-20 722,-459 722,-459 722,-465 716,-471 710,-471 710,-471 370,-471 370,-471 364,-471 358,-465 358,-459 358,-459 358,-20 358,-20 358,-14 364,-8 370,-8"/>
<text text-anchor="middle" x="540" y="-455.8" font-family="Inter" font-size="14.00" fill="#fbbf24">Target Experience</text>
</g>
<g id="clust3" class="cluster">
<title>cluster_legend</title>
<polygon fill="#0f172a" stroke="#94a3b8" stroke-dasharray="1,5" points="730,-395 730,-470 1139,-470 1139,-395 730,-395"/>
<text text-anchor="middle" x="934.5" y="-454.8" font-family="Inter" font-size="14.00" fill="#94a3b8">Legend</text>
</g>
<!-- Init -->
<g id="node1" class="node">
<title>Init</title>
<path fill="#1e293b" stroke="#38bdf8" stroke-width="2" d="M282,-440C282,-440 144,-440 144,-440 138,-440 132,-434 132,-428 132,-428 132,-414 132,-414 132,-408 138,-402 144,-402 144,-402 282,-402 282,-402 288,-402 294,-408 294,-414 294,-414 294,-428 294,-428 294,-434 288,-440 282,-440"/>
<text text-anchor="middle" x="213" y="-424.8" font-family="Inter" font-size="14.00" fill="#f8fafc">init</text>
<text text-anchor="middle" x="213" y="-409.8" font-family="Inter" font-size="14.00" fill="#f8fafc">(construct controller)</text>
</g>
<!-- Start -->
<g id="node2" class="node">
<title>Start</title>
<path fill="#1e293b" stroke="#38bdf8" stroke-width="2" d="M204.5,-336C204.5,-336 59.5,-336 59.5,-336 53.5,-336 47.5,-330 47.5,-324 47.5,-324 47.5,-310 47.5,-310 47.5,-304 53.5,-298 59.5,-298 59.5,-298 204.5,-298 204.5,-298 210.5,-298 216.5,-304 216.5,-310 216.5,-310 216.5,-324 216.5,-324 216.5,-330 210.5,-336 204.5,-336"/>
<text text-anchor="middle" x="132" y="-320.8" font-family="Inter" font-size="14.00" fill="#f8fafc">start()</text>
<text text-anchor="middle" x="132" y="-305.8" font-family="Inter" font-size="14.00" fill="#f8fafc">spawn player + grunt</text>
</g>
<!-- Init&#45;&gt;Start -->
<g id="edge1" class="edge">
<title>Init&#45;&gt;Start</title>
<path fill="none" stroke="#38bdf8" stroke-width="2" d="M198.52,-401.76C185.73,-385.66 166.95,-362.01 152.6,-343.94"/>
<polygon fill="#38bdf8" stroke="#38bdf8" stroke-width="2" points="155.32,-341.73 146.36,-336.08 149.83,-346.09 155.32,-341.73"/>
<text text-anchor="middle" x="205" y="-372.8" font-family="Times,serif" font-size="14.00">start()</text>
<text text-anchor="middle" x="205" y="-357.8" font-family="Times,serif" font-size="14.00">once</text>
</g>
<!-- Playing -->
<g id="node3" class="node">
<title>Playing</title>
<path fill="#1e293b" stroke="#38bdf8" stroke-width="2" d="M103.5,-232C103.5,-232 28.5,-232 28.5,-232 22.5,-232 16.5,-226 16.5,-220 16.5,-220 16.5,-206 16.5,-206 16.5,-200 22.5,-194 28.5,-194 28.5,-194 103.5,-194 103.5,-194 109.5,-194 115.5,-200 115.5,-206 115.5,-206 115.5,-220 115.5,-220 115.5,-226 109.5,-232 103.5,-232"/>
<text text-anchor="middle" x="66" y="-216.8" font-family="Inter" font-size="14.00" fill="#f8fafc">playing</text>
<text text-anchor="middle" x="66" y="-201.8" font-family="Inter" font-size="14.00" fill="#f8fafc">update loop</text>
</g>
<!-- Start&#45;&gt;Playing -->
<g id="edge2" class="edge">
<title>Start&#45;&gt;Playing</title>
<path fill="none" stroke="#38bdf8" stroke-width="2" d="M120.2,-297.76C109.97,-281.95 95.03,-258.86 83.42,-240.92"/>
<polygon fill="#38bdf8" stroke="#38bdf8" stroke-width="2" points="86.07,-238.57 77.7,-232.08 80.19,-242.37 86.07,-238.57"/>
<text text-anchor="middle" x="155" y="-268.8" font-family="Times,serif" font-size="14.00">ensure stores</text>
<text text-anchor="middle" x="155" y="-253.8" font-family="Times,serif" font-size="14.00">seed entities</text>
</g>
<!-- Playing&#45;&gt;Playing -->
<g id="edge3" class="edge">
<title>Playing&#45;&gt;Playing</title>
<path fill="none" stroke="#fbbf24" stroke-width="2" d="M115.75,-220.96C126.07,-220.12 133.5,-217.47 133.5,-213 133.5,-210.21 130.6,-208.12 125.9,-206.75"/>
<polygon fill="#fbbf24" stroke="#fbbf24" stroke-width="2" points="126.19,-203.25 115.75,-205.04 125.03,-210.15 126.19,-203.25"/>
<text text-anchor="middle" x="182" y="-216.8" font-family="Times,serif" font-size="14.00" fill="#fbbf24">update(delta)</text>
<text text-anchor="middle" x="182" y="-201.8" font-family="Times,serif" font-size="14.00" fill="#fbbf24">fixed step</text>
</g>
<!-- GameOver -->
<g id="node4" class="node">
<title>GameOver</title>
<path fill="#1e293b" stroke="#38bdf8" stroke-width="2" d="M163.5,-143C163.5,-143 38.5,-143 38.5,-143 32.5,-143 26.5,-137 26.5,-131 26.5,-131 26.5,-117 26.5,-117 26.5,-111 32.5,-105 38.5,-105 38.5,-105 163.5,-105 163.5,-105 169.5,-105 175.5,-111 175.5,-117 175.5,-117 175.5,-131 175.5,-131 175.5,-137 169.5,-143 163.5,-143"/>
<text text-anchor="middle" x="101" y="-127.8" font-family="Inter" font-size="14.00" fill="#f8fafc">game&#45;over</text>
<text text-anchor="middle" x="101" y="-112.8" font-family="Inter" font-size="14.00" fill="#f8fafc">triggerGameOver()</text>
</g>
<!-- Playing&#45;&gt;GameOver -->
<g id="edge4" class="edge">
<title>Playing&#45;&gt;GameOver</title>
<path fill="none" stroke="#38bdf8" stroke-width="2" d="M73.25,-193.97C78.09,-181.96 84.53,-165.94 89.99,-152.36"/>
<polygon fill="#38bdf8" stroke="#38bdf8" stroke-width="2" points="93.27,-153.59 93.76,-143 86.78,-150.97 93.27,-153.59"/>
<text text-anchor="middle" x="153.5" y="-164.8" font-family="Times,serif" font-size="14.00">triggerGameOver()</text>
</g>
<!-- Restart -->
<g id="node5" class="node">
<title>Restart</title>
<path fill="#1e293b" stroke="#38bdf8" stroke-width="2" d="M214,-54C214,-54 144,-54 144,-54 138,-54 132,-48 132,-42 132,-42 132,-28 132,-28 132,-22 138,-16 144,-16 144,-16 214,-16 214,-16 220,-16 226,-22 226,-28 226,-28 226,-42 226,-42 226,-48 220,-54 214,-54"/>
<text text-anchor="middle" x="179" y="-38.8" font-family="Inter" font-size="14.00" fill="#f8fafc">restart()</text>
<text text-anchor="middle" x="179" y="-23.8" font-family="Inter" font-size="14.00" fill="#f8fafc">reset world</text>
</g>
<!-- GameOver&#45;&gt;Restart -->
<g id="edge5" class="edge">
<title>GameOver&#45;&gt;Restart</title>
<path fill="none" stroke="#38bdf8" stroke-width="2" d="M110.99,-104.53C116.95,-94.36 125.09,-81.86 134,-72 137.52,-68.11 141.48,-64.31 145.56,-60.71"/>
<polygon fill="#38bdf8" stroke="#38bdf8" stroke-width="2" points="148.04,-63.2 153.46,-54.1 143.54,-57.83 148.04,-63.2"/>
<text text-anchor="middle" x="198" y="-75.8" font-family="Times,serif" font-size="14.00">accumulator flush</text>
</g>
<!-- Restart&#45;&gt;Init -->
<g id="edge6" class="edge">
<title>Restart&#45;&gt;Init</title>
<path fill="none" stroke="#38bdf8" stroke-width="2" d="M226.2,-46.67C239.81,-52.04 253.31,-60.07 262,-72 275.41,-90.41 267,-100.22 267,-123 267,-318 267,-318 267,-318 267,-346.28 250.59,-374.37 235.86,-393.9"/>
<polygon fill="#38bdf8" stroke="#38bdf8" stroke-width="2" points="232.94,-391.95 229.5,-401.97 238.44,-396.29 232.94,-391.95"/>
<text text-anchor="middle" x="304.5" y="-209.3" font-family="Times,serif" font-size="14.00">reset seed</text>
</g>
<!-- Boot -->
<g id="node6" class="node">
<title>Boot</title>
<path fill="#172554" stroke="#fbbf24" stroke-width="2" d="M665,-440C665,-440 501,-440 501,-440 495,-440 489,-434 489,-428 489,-428 489,-414 489,-414 489,-408 495,-402 501,-402 501,-402 665,-402 665,-402 671,-402 677,-408 677,-414 677,-414 677,-428 677,-428 677,-434 671,-440 665,-440"/>
<text text-anchor="middle" x="583" y="-424.8" font-family="Inter" font-size="14.00" fill="#f8fafc">Boot</text>
<text text-anchor="middle" x="583" y="-409.8" font-family="Inter" font-size="14.00" fill="#f8fafc">settings, seeds, services</text>
</g>
<!-- FrontDoor -->
<g id="node7" class="node">
<title>FrontDoor</title>
<path fill="#1d4ed8" stroke="#fbbf24" stroke-width="2" d="M620.5,-336C620.5,-336 545.5,-336 545.5,-336 539.5,-336 533.5,-330 533.5,-324 533.5,-324 533.5,-310 533.5,-310 533.5,-304 539.5,-298 545.5,-298 545.5,-298 620.5,-298 620.5,-298 626.5,-298 632.5,-304 632.5,-310 632.5,-310 632.5,-324 632.5,-324 632.5,-330 626.5,-336 620.5,-336"/>
<text text-anchor="middle" x="583" y="-320.8" font-family="Inter" font-size="14.00" fill="#f8fafc">Front Door</text>
<text text-anchor="middle" x="583" y="-305.8" font-family="Inter" font-size="14.00" fill="#f8fafc">title, menus</text>
</g>
<!-- Boot&#45;&gt;FrontDoor -->
<g id="edge7" class="edge">
<title>Boot&#45;&gt;FrontDoor</title>
<path fill="none" stroke="#38bdf8" stroke-width="2" d="M583,-401.76C583,-386.32 583,-363.91 583,-346.16"/>
<polygon fill="#38bdf8" stroke="#38bdf8" stroke-width="2" points="586.5,-346.08 583,-336.08 579.5,-346.08 586.5,-346.08"/>
</g>
<!-- Prep -->
<g id="node8" class="node">
<title>Prep</title>
<path fill="#1e3a8a" stroke="#fbbf24" stroke-width="2" d="M578.5,-232C578.5,-232 445.5,-232 445.5,-232 439.5,-232 433.5,-226 433.5,-220 433.5,-220 433.5,-206 433.5,-206 433.5,-200 439.5,-194 445.5,-194 445.5,-194 578.5,-194 578.5,-194 584.5,-194 590.5,-200 590.5,-206 590.5,-206 590.5,-220 590.5,-220 590.5,-226 584.5,-232 578.5,-232"/>
<text text-anchor="middle" x="512" y="-216.8" font-family="Inter" font-size="14.00" fill="#f8fafc">Run Preparation</text>
<text text-anchor="middle" x="512" y="-201.8" font-family="Inter" font-size="14.00" fill="#f8fafc">world + HUD spawn</text>
</g>
<!-- FrontDoor&#45;&gt;Prep -->
<g id="edge8" class="edge">
<title>FrontDoor&#45;&gt;Prep</title>
<path fill="none" stroke="#38bdf8" stroke-width="2" d="M570.31,-297.76C559.2,-281.81 542.93,-258.43 530.4,-240.43"/>
<polygon fill="#38bdf8" stroke="#38bdf8" stroke-width="2" points="533.17,-238.29 524.58,-232.08 527.42,-242.28 533.17,-238.29"/>
</g>
<!-- Loop -->
<g id="node9" class="node">
<title>Loop</title>
<path fill="#1d4ed8" stroke="#fbbf24" stroke-width="2" d="M682.5,-143C682.5,-143 511.5,-143 511.5,-143 505.5,-143 499.5,-137 499.5,-131 499.5,-131 499.5,-117 499.5,-117 499.5,-111 505.5,-105 511.5,-105 511.5,-105 682.5,-105 682.5,-105 688.5,-105 694.5,-111 694.5,-117 694.5,-117 694.5,-131 694.5,-131 694.5,-137 688.5,-143 682.5,-143"/>
<text text-anchor="middle" x="597" y="-127.8" font-family="Inter" font-size="14.00" fill="#f8fafc">Gameplay Loop</text>
<text text-anchor="middle" x="597" y="-112.8" font-family="Inter" font-size="14.00" fill="#f8fafc">input, systems, dynamics</text>
</g>
<!-- Prep&#45;&gt;Loop -->
<g id="edge9" class="edge">
<title>Prep&#45;&gt;Loop</title>
<path fill="none" stroke="#38bdf8" stroke-width="2" d="M529.61,-193.97C541.92,-181.38 558.53,-164.38 572.18,-150.41"/>
<polygon fill="#38bdf8" stroke="#38bdf8" stroke-width="2" points="574.93,-152.6 579.41,-143 569.92,-147.71 574.93,-152.6"/>
</g>
<!-- Summary -->
<g id="node10" class="node">
<title>Summary</title>
<path fill="#172554" stroke="#fbbf24" stroke-width="2" d="M683.5,-54C683.5,-54 594.5,-54 594.5,-54 588.5,-54 582.5,-48 582.5,-42 582.5,-42 582.5,-28 582.5,-28 582.5,-22 588.5,-16 594.5,-16 594.5,-16 683.5,-16 683.5,-16 689.5,-16 695.5,-22 695.5,-28 695.5,-28 695.5,-42 695.5,-42 695.5,-48 689.5,-54 683.5,-54"/>
<text text-anchor="middle" x="639" y="-38.8" font-family="Inter" font-size="14.00" fill="#f8fafc">Post&#45;Run</text>
<text text-anchor="middle" x="639" y="-23.8" font-family="Inter" font-size="14.00" fill="#f8fafc">stats, unlocks</text>
</g>
<!-- Loop&#45;&gt;Summary -->
<g id="edge10" class="edge">
<title>Loop&#45;&gt;Summary</title>
<path fill="none" stroke="#38bdf8" stroke-width="2" d="M611.97,-104.67C615.94,-99.21 619.96,-93.06 623,-87 626.64,-79.73 629.67,-71.47 632.07,-63.74"/>
<polygon fill="#38bdf8" stroke="#38bdf8" stroke-width="2" points="635.47,-64.59 634.87,-54.01 628.74,-62.65 635.47,-64.59"/>
</g>
<!-- Hygiene -->
<g id="node11" class="node">
<title>Hygiene</title>
<path fill="#0f172a" stroke="#f87171" stroke-width="2" d="M543.5,-54C543.5,-54 388.5,-54 388.5,-54 382.5,-54 376.5,-48 376.5,-42 376.5,-42 376.5,-28 376.5,-28 376.5,-22 382.5,-16 388.5,-16 388.5,-16 543.5,-16 543.5,-16 549.5,-16 555.5,-22 555.5,-28 555.5,-28 555.5,-42 555.5,-42 555.5,-48 549.5,-54 543.5,-54"/>
<text text-anchor="middle" x="466" y="-38.8" font-family="Inter" font-size="14.00" fill="#f87171">Hygiene</text>
<text text-anchor="middle" x="466" y="-23.8" font-family="Inter" font-size="14.00" fill="#f87171">restart paths, teardown</text>
</g>
<!-- Loop&#45;&gt;Hygiene -->
<g id="edge12" class="edge">
<title>Loop&#45;&gt;Hygiene</title>
<path fill="none" stroke="#f87171" stroke-width="2" d="M499.23,-108.31C488.46,-103.1 478.65,-96.17 471,-87 465.85,-80.82 463.71,-72.65 463.1,-64.66"/>
<polygon fill="#f87171" stroke="#f87171" stroke-width="2" points="466.6,-64.43 463.06,-54.45 459.6,-64.46 466.6,-64.43"/>
<text text-anchor="middle" x="545" y="-75.8" font-family="Times,serif" font-size="14.00" fill="#f87171">background services</text>
</g>
<!-- Summary&#45;&gt;FrontDoor -->
<g id="edge11" class="edge">
<title>Summary&#45;&gt;FrontDoor</title>
<path fill="none" stroke="#38bdf8" stroke-width="2" d="M663.67,-54.11C678.44,-66.56 695.87,-84.5 704,-105 710.23,-120.7 709.07,-126.89 704,-143 685.32,-202.3 638.27,-258.97 608.65,-290.46"/>
<polygon fill="#38bdf8" stroke="#38bdf8" stroke-width="2" points="605.91,-288.26 601.52,-297.91 610.96,-293.1 605.91,-288.26"/>
<text text-anchor="middle" x="749" y="-164.8" font-family="Times,serif" font-size="14.00">back to menus</text>
</g>
<!-- Hygiene&#45;&gt;Prep -->
<g id="edge13" class="edge">
<title>Hygiene&#45;&gt;Prep</title>
<path fill="none" stroke="#f87171" stroke-width="2" d="M439.2,-54.05C411.7,-74.91 375.39,-110.57 394,-143 405.88,-163.71 426.65,-178.8 447.48,-189.49"/>
<polygon fill="#f87171" stroke="#f87171" stroke-width="2" points="446.18,-192.75 456.71,-193.95 449.23,-186.44 446.18,-192.75"/>
<text text-anchor="middle" x="442.5" y="-120.3" font-family="Times,serif" font-size="14.00" fill="#f87171">prep variants</text>
</g>
<!-- curr -->
<g id="node12" class="node">
<title>curr</title>
<path fill="#1e293b" stroke="#38bdf8" stroke-width="2" d="M1119,-439C1119,-439 1001,-439 1001,-439 995,-439 989,-433 989,-427 989,-427 989,-415 989,-415 989,-409 995,-403 1001,-403 1001,-403 1119,-403 1119,-403 1125,-403 1131,-409 1131,-415 1131,-415 1131,-427 1131,-427 1131,-433 1125,-439 1119,-439"/>
<text text-anchor="middle" x="1060" y="-417.3" font-family="Inter" font-size="14.00" fill="#f8fafc">Current MVP state</text>
</g>
<!-- final -->
<g id="node13" class="node">
<title>final</title>
<path fill="#1d4ed8" stroke="#fbbf24" stroke-width="2" d="M958.5,-439C958.5,-439 881.5,-439 881.5,-439 875.5,-439 869.5,-433 869.5,-427 869.5,-427 869.5,-415 869.5,-415 869.5,-409 875.5,-403 881.5,-403 881.5,-403 958.5,-403 958.5,-403 964.5,-403 970.5,-409 970.5,-415 970.5,-415 970.5,-427 970.5,-427 970.5,-433 964.5,-439 958.5,-439"/>
<text text-anchor="middle" x="920" y="-417.3" font-family="Inter" font-size="14.00" fill="#f8fafc">Target stage</text>
</g>
<!-- hygiene_note -->
<g id="node14" class="node">
<title>hygiene_note</title>
<path fill="#0f172a" stroke="#f87171" stroke-width="2" d="M839.5,-439C839.5,-439 750.5,-439 750.5,-439 744.5,-439 738.5,-433 738.5,-427 738.5,-427 738.5,-415 738.5,-415 738.5,-409 744.5,-403 750.5,-403 750.5,-403 839.5,-403 839.5,-403 845.5,-403 851.5,-409 851.5,-415 851.5,-415 851.5,-427 851.5,-427 851.5,-433 845.5,-439 839.5,-439"/>
<text text-anchor="middle" x="795" y="-417.3" font-family="Inter" font-size="14.00" fill="#f87171">Support loops</text>
</g>
</g>
</svg>
